<svg width="1440" height="840" viewBox="0 0 1440 840" fill="none" xmlns="http://www.w3.org/2000/svg">
<g clip-path="url(#clip0_413_669)">
<rect width="1440" height="840" fill="#121214"/>
<g opacity="0.1">
<path fill-rule="evenodd" clip-rule="evenodd" d="M1263.23 35.3719C1263.23 35.3719 1293.19 72.476 1311 86.9024C1328.8 101.329 1338.56 95.147 1338.56 95.147C1338.56 95.147 1354.28 101.491 1363.9 111.717C1373.52 121.944 1375.09 129.71 1381.05 140.017C1387.01 150.325 1405.24 147.5 1405.24 147.5L1446.78 177.31L1489.01 209.776C1489.01 209.776 1447.23 175.921 1442.82 165.614C1438.4 155.306 1404.09 117.825 1398.12 107.517C1392.16 97.2099 1383.96 99.2727 1378 84.8463C1372.04 70.42 1365.33 53.924 1355.64 41.5604C1345.95 29.1902 1325.84 10.6381 1315.02 2.39349C1304.2 -5.85112 1287.06 -14.0957 1287.06 -14.0957L1257.25 -23.3717L1228.18 -45.3416H1094.76C1094.76 -45.3416 1160.2 16.8266 1189.94 32.2844C1201.2 38.1291 1263.24 35.3787 1263.24 35.3787L1263.23 35.3719Z" fill="#633BBC"/>
<path fill-rule="evenodd" clip-rule="evenodd" d="M602.591 227.518C602.591 227.518 625.14 247.904 631.444 255.373C637.748 262.843 658.453 266.166 662.51 268.242C666.566 270.319 676.288 288.999 676.288 288.999C676.288 288.999 681.889 302.812 683.23 312.715C684.576 322.618 702.556 333.829 702.556 333.829L719.615 343.792C719.615 343.792 693.181 302.697 690.231 292.74C687.277 282.777 690.894 273.649 683.235 268.249C675.571 262.856 656.942 254.14 655.002 244.176C653.061 234.212 622.741 199.346 613.136 193.124C603.532 186.895 575.045 171.957 575.045 171.957C575.045 171.957 593.552 213.833 602.596 227.532L602.591 227.518Z" fill="#633BBC"/>
<path fill-rule="evenodd" clip-rule="evenodd" d="M105.412 446.677C105.412 446.677 142.158 492.188 164 509.891C185.842 527.586 197.816 520.002 197.816 520.002C197.816 520.002 217.103 527.782 228.901 540.327C240.7 552.873 242.621 562.398 249.934 575.045C257.247 587.685 279.601 584.22 279.601 584.22L330.558 620.785L382.36 660.606C382.36 660.606 331.114 619.079 325.698 606.439C320.276 593.799 278.187 547.817 270.874 535.177C263.561 522.537 253.503 525.065 246.19 507.363C238.876 489.667 230.647 469.436 218.76 454.268C206.874 439.1 182.21 416.341 168.944 406.23C155.673 396.118 134.645 385.999 134.645 385.999L98.0748 374.62L62.4161 347.668H-101.251C-101.251 347.668 -20.9777 423.925 15.5049 442.889C29.3023 450.061 105.412 446.684 105.412 446.684V446.677Z" fill="#633BBC"/>
<path fill-rule="evenodd" clip-rule="evenodd" d="M1324.53 328.218C1324.53 328.218 1374.33 366.583 1380.63 374.052C1386.94 381.522 1376.69 386.322 1379.64 390.704C1386.97 401.611 1424.67 416.246 1424.67 416.246C1424.67 416.246 1430.97 419.206 1432.31 429.109C1433.66 439.012 1442.1 445.423 1442.1 445.423L1459.16 455.386C1459.16 455.386 1423.09 413.59 1420.14 403.633C1417.18 393.67 1412.49 392.497 1404.83 387.104C1397.16 381.711 1371.66 367.547 1369.72 357.584C1367.78 347.62 1321.35 269.273 1311.74 263.05C1302.13 256.821 1265.98 249.224 1265.98 249.224C1265.98 249.224 1315.49 314.52 1324.53 328.218V328.218Z" fill="#633BBC"/>
<path fill-rule="evenodd" clip-rule="evenodd" d="M480.866 -21.0131C480.866 -21.0131 522.941 22.4008 542.34 33.8408C542.34 33.8408 566.605 31.3331 569.886 33.8408C573.167 36.3486 587.579 48.7121 589.071 53.5254C590.563 58.332 591.557 68.6394 594.536 73.4527C597.52 78.2592 624.349 96.1237 633.793 98.1865C643.237 100.249 666.093 106.431 670.563 110.557C675.034 114.682 673.547 124.296 676.029 129.109C678.515 133.915 693.419 142.167 699.382 147.661C705.345 153.155 723.973 151.787 729.566 155.218C735.158 158.656 747.083 168.957 747.083 168.957L751.549 174.451C751.549 174.451 749.057 186.134 751.549 189.565C754.04 193.003 764.473 195.747 764.473 195.747C764.473 195.747 756.522 184.752 756.522 177.882C756.522 171.013 751.549 165.512 751.549 165.512C751.549 165.512 726.709 149.71 723.228 145.585C719.751 141.459 688.441 105.73 685.96 99.5483C683.473 93.3665 678.008 76.1897 675.029 71.3764C672.046 66.5698 643.724 56.2624 636.767 52.1367C629.81 48.011 620.859 35.6475 616.637 25.34C612.419 15.0326 604.468 -13.4966 601.981 -17.2582C599.495 -21.0199 594.029 -21.0199 594.029 -21.0199H480.857L480.866 -21.0131Z" fill="#633BBC"/>
<path fill-rule="evenodd" clip-rule="evenodd" d="M900.543 295.391C900.543 295.391 923.091 315.776 929.395 323.246C935.699 330.715 956.405 334.039 960.461 336.115C964.518 338.191 974.239 356.871 974.239 356.871C974.239 356.871 979.841 370.684 981.182 380.587C982.527 390.49 1000.51 401.701 1000.51 401.701L1017.57 411.665C1017.57 411.665 991.132 370.57 988.183 360.613C985.228 350.649 988.846 341.521 981.187 336.122C973.522 330.729 954.894 322.012 952.953 312.049C951.013 302.085 920.693 267.219 911.088 260.997C901.483 254.768 872.996 239.829 872.996 239.829C872.996 239.829 891.504 281.706 900.547 295.404L900.543 295.391Z" fill="#633BBC"/>
<path fill-rule="evenodd" clip-rule="evenodd" d="M906.27 67.2576C906.27 67.2576 936.229 104.362 954.034 118.788C971.839 133.214 981.599 127.033 981.599 127.033C981.599 127.033 997.323 133.376 1006.94 143.603C1016.56 153.829 1015.07 172.381 1021.03 182.689C1026.99 192.996 1051.59 185.783 1051.59 185.783L1088.45 242.08L1112.81 277.505C1112.81 277.505 1086.51 230.094 1082.1 219.793C1077.68 209.485 1047.12 149.71 1041.15 139.403C1035.19 129.095 1026.99 131.158 1021.03 116.732C1015.06 102.306 1008.36 85.8096 998.663 73.4461C988.976 61.0758 968.87 42.5238 958.051 34.2791C947.233 26.0345 930.091 17.7899 930.091 17.7899L900.278 8.5139L871.21 -13.456H737.79C737.79 -13.456 803.233 48.7123 832.973 64.1701C844.225 70.0148 906.265 67.2643 906.265 67.2643L906.27 67.2576Z" fill="#633BBC"/>
<path fill-rule="evenodd" clip-rule="evenodd" d="M1024.21 -7.19977C1024.21 -7.19977 1040.42 24.7472 1052.03 34.0233C1063.64 43.2993 1078.32 47.2497 1083.81 56.5257C1089.3 65.8018 1110.54 87.0099 1110.54 87.0099L1141.04 104.45C1141.04 104.45 1099.52 55.9123 1094.97 44.6206C1090.42 33.3357 1078.21 24.0596 1078.21 24.0596L1024.21 -7.19977V-7.19977Z" fill="#633BBC"/>
<path fill-rule="evenodd" clip-rule="evenodd" d="M-16.8762 181.43C-16.8762 181.43 35.2955 233.614 45.7678 246.166C56.2402 258.719 84.3713 257.768 93.6833 270.941C102.995 284.113 119.694 289.884 131.385 307.782C143.076 325.673 181.796 338.859 194.994 359.973C208.197 381.087 230.648 389.736 241.964 399.268C253.28 408.8 288.348 431.889 288.348 431.889C288.348 431.889 245.538 404.182 238.556 376.476C231.574 348.769 235.538 314.24 235.538 314.24C235.538 314.24 244.509 311.523 235.538 288.583C226.567 265.642 234.061 251.02 222.799 231.78C211.536 212.541 206.149 177.904 213.852 161.745C221.555 145.586 239.502 98.141 235.538 69.9152C231.574 41.6826 266.414 20.9059 266.414 20.9059C266.414 20.9059 319.098 27.836 325.431 39.3771C331.764 50.9249 378.129 69.9152 378.129 69.9152C378.129 69.9152 415.177 72.7465 420.228 69.9152C425.274 67.0838 441.153 85.555 454.088 101.714C467.022 117.88 469.543 108.03 487.504 125.329C505.47 142.627 508.902 168.743 519.209 181.436C519.209 181.436 507.673 153.561 504.046 125.329C504.046 125.329 522.499 128.14 535.858 132.758C549.217 137.375 555.618 136.351 564.847 146.099C574.076 155.847 584.237 162.001 584.237 162.001C584.237 162.001 568.606 142.505 564.847 131.726C561.088 120.954 558.119 110.174 553.297 106.069C548.476 101.963 493.895 82.9259 479.913 73.9734C465.93 65.021 454.088 35.5211 454.088 35.5211C454.088 35.5211 422.086 -26.6472 401.897 -27.591C381.708 -28.5348 346.317 -41.9702 333.431 -54.5292C320.546 -67.0882 278.022 -138.445 278.022 -138.445H-9.77763L-16.8762 181.43V181.43Z" fill="#633BBC"/>
<path fill-rule="evenodd" clip-rule="evenodd" d="M444.779 306.364C444.779 306.364 467.328 326.75 473.632 334.219C479.936 341.688 500.642 345.012 504.698 347.088C508.754 349.164 518.476 367.845 518.476 367.845C518.476 367.845 524.078 381.658 525.418 391.56C526.764 401.463 544.744 412.674 544.744 412.674L561.804 422.638C561.804 422.638 535.369 381.543 532.419 371.586C529.465 361.622 533.083 352.495 525.423 347.095C517.759 341.702 499.13 332.985 497.19 323.022C495.249 313.058 464.929 278.192 455.325 271.97C445.72 265.741 417.233 250.802 417.233 250.802C417.233 250.802 435.74 292.679 444.784 306.377L444.779 306.364Z" fill="#633BBC"/>
</g>
<path d="M1037.38 14.2435C1036.7 14.2435 1036.15 13.3725 1036.15 12.298C1036.15 11.2234 1036.7 10.3523 1037.38 10.3523C1038.07 10.3523 1038.62 11.2234 1038.62 12.298C1038.62 13.3725 1038.07 14.2435 1037.38 14.2435Z" fill="white"/>
<path d="M998.781 9.06357C998.781 9.7668 999.154 10.3528 999.611 10.3528C1000.07 10.3528 1000.44 9.7668 1000.44 9.06357C1000.44 8.36035 1000.07 7.77435 999.611 7.77435C999.154 7.77435 998.781 8.36035 998.781 9.06357Z" fill="white"/>
<path d="M1020.64 236.322C1020.03 235.853 1019.29 236.251 1018.98 237.212C1018.68 238.173 1018.93 239.345 1019.56 239.814C1020.19 240.283 1020.91 239.885 1021.22 238.923C1021.52 237.962 1021.27 236.79 1020.64 236.322Z" fill="white"/>
<path d="M991.224 60.2352C990.818 59.9305 990.309 60.1883 990.106 60.8212C989.903 61.4541 990.072 62.2277 990.479 62.5558C990.885 62.8606 991.394 62.6027 991.597 61.9698C991.8 61.3369 991.631 60.5634 991.224 60.2352Z" fill="white"/>
<path d="M1164.71 203.156C1163.75 203.461 1163.1 204.914 1163.31 206.438C1163.49 207.962 1164.44 208.923 1165.41 208.642C1166.37 208.337 1167.02 206.883 1166.81 205.36C1166.63 203.86 1165.68 202.875 1164.71 203.156Z" fill="white"/>
<g opacity="0.64">
<path d="M1388.77 132.311C1388.77 132.78 1389.01 133.155 1389.31 133.155C1389.62 133.155 1389.86 132.78 1389.86 132.311C1389.86 131.842 1389.62 131.467 1389.31 131.467C1389.01 131.467 1388.77 131.842 1388.77 132.311Z" fill="white"/>
<path d="M1366.65 94.3141C1366.65 94.6188 1366.82 94.8767 1367.01 94.8767C1367.19 94.8767 1367.36 94.6188 1367.36 94.3141C1367.36 94.0094 1367.19 93.7516 1367.01 93.7516C1366.82 93.7516 1366.65 94.0094 1366.65 94.3141Z" fill="white"/>
<path d="M1361.28 175.256C1361.01 175.045 1360.69 175.233 1360.55 175.631C1360.41 176.03 1360.53 176.546 1360.8 176.757C1361.08 176.968 1361.4 176.78 1361.53 176.382C1361.67 175.96 1361.55 175.467 1361.28 175.256Z" fill="white"/>
<path d="M1309.38 106.012C1309.19 105.871 1308.99 106.012 1308.9 106.27C1308.82 106.551 1308.9 106.879 1309.07 107.02C1309.26 107.16 1309.46 107.02 1309.55 106.762C1309.63 106.504 1309.55 106.152 1309.38 106.012Z" fill="white"/>
<path d="M1425.81 172.494C1425.39 172.634 1425.12 173.267 1425.2 173.923C1425.28 174.58 1425.69 175.002 1426.12 174.884C1426.54 174.744 1426.81 174.111 1426.73 173.455C1426.64 172.798 1426.23 172.376 1425.81 172.494Z" fill="white"/>
</g>
<g opacity="0.64">
<path d="M1063.1 137.405C1063.15 136.936 1062.95 136.514 1062.66 136.42C1062.37 136.35 1062.08 136.655 1062.03 137.1C1061.98 137.569 1062.19 137.991 1062.47 138.084C1062.76 138.178 1063.05 137.85 1063.1 137.405Z" fill="white"/>
<path d="M1078.95 143.076C1078.98 142.772 1078.85 142.49 1078.66 142.42C1078.46 142.373 1078.27 142.584 1078.24 142.889C1078.2 143.194 1078.34 143.475 1078.53 143.545C1078.73 143.592 1078.92 143.381 1078.95 143.076Z" fill="white"/>
<path d="M1119.45 142.698C1119.89 143.191 1120.5 143.027 1120.81 142.347C1121.13 141.667 1121.03 140.729 1120.59 140.237C1120.15 139.745 1119.54 139.909 1119.23 140.589C1118.91 141.268 1119.01 142.206 1119.45 142.698Z" fill="white"/>
<path d="M1057.66 79.6656C1057.94 79.9937 1058.35 79.9 1058.57 79.4311C1058.77 78.9858 1058.72 78.3529 1058.42 78.0247C1058.13 77.6966 1057.72 77.7903 1057.5 78.2591C1057.3 78.7045 1057.35 79.3374 1057.66 79.6656Z" fill="white"/>
<path d="M1030.97 88.0121C1031.39 88.0121 1031.73 87.4495 1031.73 86.7697C1031.73 86.0899 1031.36 85.5742 1030.94 85.5977C1030.51 85.5977 1030.17 86.1602 1030.17 86.84C1030.17 87.5198 1030.55 88.0355 1030.97 88.0121Z" fill="white"/>
<path d="M1162.68 69.0276C1162.68 69.8714 1163.12 70.5512 1163.66 70.5512C1164.2 70.5512 1164.64 69.8714 1164.64 69.0276C1164.64 68.1837 1164.2 67.5038 1163.66 67.5038C1163.12 67.5038 1162.68 68.1837 1162.68 69.0276Z" fill="white"/>
<path d="M1197.94 174.229C1197.94 175.917 1198.83 177.276 1199.91 177.276C1200.99 177.276 1201.88 175.917 1201.88 174.229C1201.88 172.541 1200.99 171.182 1199.91 171.182C1198.83 171.182 1197.94 172.541 1197.94 174.229Z" fill="white"/>
</g>
<g opacity="0.64">
<path d="M203.108 13.6895C202.939 13.4316 202.667 13.4316 202.498 13.6895C202.329 13.9473 202.329 14.3927 202.498 14.6506C202.667 14.9084 202.939 14.9084 203.108 14.6506C203.278 14.3927 203.278 13.9473 203.108 13.6895Z" fill="white"/>
</g>
<g opacity="0.64">
<path d="M97.6065 112.164C97.3523 112.562 97.3353 113.195 97.6065 113.593C97.8606 113.992 98.2673 114.015 98.5384 113.593C98.7926 113.195 98.8096 112.562 98.5384 112.164C98.2673 111.765 97.8776 111.742 97.6065 112.164Z" fill="white"/>
<path d="M100.077 50.3226C99.9077 50.5804 99.9077 51.0258 100.077 51.2837C100.247 51.5415 100.518 51.5649 100.687 51.2837C100.857 51.0258 100.857 50.6039 100.687 50.3226C100.518 50.0413 100.247 50.0413 100.077 50.3226Z" fill="white"/>
<path d="M50.5836 111.36C50.4649 110.821 50.1091 110.539 49.7533 110.703C49.4144 110.867 49.228 111.453 49.3296 111.993C49.4482 112.532 49.8041 112.813 50.1599 112.649C50.4988 112.485 50.6852 111.899 50.5836 111.36Z" fill="white"/>
<path d="M106.517 195.94C106.093 195.471 105.5 195.658 105.212 196.315C104.924 196.971 105.026 197.885 105.45 198.354C105.873 198.823 106.466 198.635 106.754 197.979C107.042 197.323 106.941 196.408 106.517 195.94Z" fill="white"/>
</g>
<g opacity="0.64">
<path d="M650.122 157.073C650.393 157.471 650.85 157.565 651.138 157.237C651.426 156.932 651.443 156.346 651.155 155.924C650.884 155.526 650.427 155.432 650.139 155.76C649.851 156.065 649.834 156.651 650.122 157.073Z" fill="white"/>
<path d="M606.526 146.875C606.712 147.156 607.017 147.203 607.204 146.992C607.39 146.781 607.407 146.383 607.204 146.125C607.017 145.843 606.712 145.797 606.526 146.008C606.339 146.218 606.322 146.617 606.526 146.875Z" fill="white"/>
<path d="M649.062 223.598C648.689 223.692 648.469 224.184 648.587 224.7C648.706 225.216 649.112 225.52 649.485 225.426C649.858 225.333 650.078 224.841 649.96 224.325C649.841 223.809 649.434 223.504 649.062 223.598Z" fill="white"/>
<path d="M558.481 217.177C558.226 217.247 558.091 217.576 558.176 217.904C558.26 218.232 558.532 218.466 558.769 218.396C559.023 218.326 559.159 217.998 559.074 217.669C558.989 217.341 558.718 217.107 558.481 217.177Z" fill="white"/>
<path d="M709.323 153.558C709.001 154.121 709.102 154.965 709.577 155.457C710.051 155.949 710.695 155.902 711.017 155.34C711.339 154.777 711.238 153.933 710.763 153.441C710.289 152.949 709.645 152.996 709.323 153.558Z" fill="white"/>
</g>
<g opacity="0.64">
<path d="M440.215 219.535C439.961 219.933 439.944 220.566 440.215 220.964C440.486 221.363 440.876 221.386 441.147 220.964C441.401 220.566 441.418 219.933 441.147 219.535C440.893 219.136 440.486 219.113 440.215 219.535Z" fill="white"/>
<path d="M442.669 157.693C442.5 157.951 442.5 158.373 442.669 158.654C442.839 158.912 443.11 158.935 443.279 158.654C443.449 158.396 443.449 157.951 443.279 157.693C443.11 157.435 442.839 157.412 442.669 157.693Z" fill="white"/>
<path d="M391.003 203.804C390.884 203.265 390.528 202.983 390.172 203.148C389.834 203.312 389.647 203.898 389.749 204.437C389.867 204.976 390.223 205.257 390.579 205.093C390.918 204.929 391.104 204.343 391.003 203.804Z" fill="white"/>
<path d="M387.874 90.4186C387.806 90.067 387.552 89.8795 387.332 89.9967C387.111 90.1139 386.976 90.4889 387.06 90.864C387.128 91.2156 387.382 91.4032 387.603 91.286C387.823 91.1688 387.959 90.7936 387.874 90.4186Z" fill="white"/>
<path d="M429.6 276.463C429.176 275.994 428.583 276.181 428.295 276.838C428.007 277.494 428.108 278.408 428.532 278.877C428.956 279.346 429.549 279.158 429.837 278.502C430.125 277.846 430.023 276.932 429.6 276.463Z" fill="white"/>
</g>
<g opacity="0.64">
<path d="M565.979 65.1963C565.928 65.6652 566.131 66.087 566.419 66.1808C566.708 66.2511 566.996 65.9465 567.046 65.5011C567.097 65.0323 566.894 64.6103 566.606 64.5165C566.318 64.4228 566.03 64.751 565.979 65.1963Z" fill="white"/>
<path d="M550.123 59.5264C550.089 59.8312 550.225 60.1125 550.411 60.1828C550.615 60.2297 550.801 60.0187 550.835 59.714C550.869 59.4093 550.733 59.128 550.547 59.0577C550.343 59.0108 550.157 59.2217 550.123 59.5264Z" fill="white"/>
<path d="M509.622 59.9241C509.181 59.4319 508.571 59.596 508.266 60.2757C507.944 60.9555 508.046 61.8931 508.487 62.3854C508.927 62.8777 509.537 62.7136 509.842 62.0338C510.164 61.354 510.063 60.4164 509.622 59.9241Z" fill="white"/>
<path d="M528.058 24.5031C527.77 24.1749 527.363 24.2687 527.143 24.7375C526.94 25.1829 526.991 25.8158 527.296 26.1439C527.584 26.4721 527.99 26.3783 528.211 25.9095C528.431 25.4407 528.363 24.8312 528.058 24.5031Z" fill="white"/>
<path d="M608.94 132.497C608.516 132.497 608.178 133.06 608.178 133.739C608.178 134.419 608.55 134.935 608.974 134.911C609.398 134.911 609.736 134.349 609.736 133.669C609.736 132.989 609.364 132.474 608.94 132.497Z" fill="white"/>
<path d="M480.501 213.373C479.958 213.373 479.518 212.691 479.518 211.849C479.518 211.008 479.958 210.326 480.501 210.326C481.044 210.326 481.484 211.008 481.484 211.849C481.484 212.691 481.044 213.373 480.501 213.373Z" fill="white"/>
<path d="M431.124 28.372C431.124 26.6843 430.242 25.3248 429.158 25.3248C428.073 25.3248 427.192 26.6843 427.192 28.372C427.192 30.0598 428.073 31.4194 429.158 31.4194C430.242 31.4194 431.124 30.0598 431.124 28.372Z" fill="white"/>
</g>
<g opacity="0.64">
<path d="M1139.32 404.627C1139.23 404.181 1138.93 403.876 1138.64 403.97C1138.35 404.064 1138.18 404.486 1138.26 404.931C1138.35 405.377 1138.65 405.681 1138.94 405.588C1139.23 405.494 1139.4 405.072 1139.32 404.627Z" fill="white"/>
<path d="M1155.51 401.205C1155.46 400.901 1155.26 400.713 1155.05 400.76C1154.85 400.807 1154.75 401.112 1154.8 401.416C1154.85 401.721 1155.05 401.909 1155.26 401.862C1155.46 401.815 1155.56 401.51 1155.51 401.205Z" fill="white"/>
<path d="M1192.6 378.845C1193.15 379.056 1193.65 378.587 1193.76 377.79C1193.86 376.993 1193.48 376.173 1192.94 375.962C1192.4 375.751 1191.89 376.219 1191.79 377.016C1191.69 377.813 1192.06 378.634 1192.6 378.845Z" fill="white"/>
<path d="M1185.84 421.39C1186.2 421.531 1186.55 421.226 1186.6 420.687C1186.67 420.148 1186.42 419.609 1186.06 419.468C1185.71 419.328 1185.35 419.632 1185.3 420.172C1185.23 420.711 1185.49 421.25 1185.84 421.39Z" fill="white"/>
<path d="M1080.52 366.187C1080.91 365.929 1081.06 365.249 1080.85 364.639C1080.65 364.03 1080.18 363.749 1079.79 363.983C1079.4 364.241 1079.24 364.921 1079.45 365.53C1079.65 366.14 1080.13 366.421 1080.52 366.187Z" fill="white"/>
<path d="M1174.81 223.968C1175.04 224.742 1175.65 225.14 1176.15 224.836C1176.64 224.531 1176.86 223.687 1176.6 222.913C1176.35 222.14 1175.76 221.741 1175.27 222.046C1174.77 222.351 1174.55 223.195 1174.81 223.968Z" fill="white"/>
</g>
<g opacity="0.64">
<path d="M543.842 379.961C543.706 378.953 543.198 378.273 542.723 378.484C542.249 378.672 541.961 379.68 542.113 380.688C542.266 381.696 542.757 382.375 543.232 382.164C543.706 381.953 543.994 380.969 543.842 379.961Z" fill="white"/>
<path d="M570.398 372.247C570.313 371.567 569.974 371.122 569.652 371.263C569.33 371.403 569.144 372.06 569.246 372.739C569.33 373.419 569.669 373.865 569.991 373.724C570.313 373.583 570.5 372.927 570.398 372.247Z" fill="white"/>
<path d="M631.249 321.549C632.13 322.041 632.978 320.963 633.13 319.158C633.283 317.353 632.689 315.501 631.808 315.009C630.927 314.517 630.08 315.595 629.927 317.4C629.775 319.205 630.368 321.057 631.249 321.549Z" fill="white"/>
<path d="M620.151 417.98C620.744 418.308 621.303 417.582 621.405 416.386C621.507 415.191 621.117 413.948 620.524 413.62C619.931 413.292 619.372 414.019 619.27 415.214C619.168 416.41 619.558 417.652 620.151 417.98Z" fill="white"/>
<path d="M357.623 342.761C358.267 342.199 358.521 340.628 358.182 339.245C357.844 337.862 357.064 337.206 356.42 337.768C355.776 338.331 355.522 339.901 355.861 341.284C356.2 342.667 356.979 343.324 357.623 342.761Z" fill="white"/>
</g>
<g opacity="0.64">
<path d="M830.077 234.868C830.365 234.61 830.467 234.118 830.314 233.766C830.162 233.414 829.806 233.321 829.518 233.579C829.23 233.836 829.128 234.329 829.281 234.68C829.433 235.032 829.789 235.126 830.077 234.868Z" fill="white"/>
<path d="M837.514 254.958C837.701 254.794 837.768 254.466 837.667 254.231C837.565 253.997 837.328 253.95 837.141 254.114C836.955 254.278 836.887 254.606 836.989 254.841C837.091 255.075 837.328 255.122 837.514 254.958Z" fill="white"/>
<path d="M864.629 296.352C864.646 297.126 865.138 297.641 865.714 297.524C866.29 297.407 866.748 296.657 866.714 295.883C866.697 295.11 866.205 294.594 865.629 294.711C865.053 294.828 864.596 295.579 864.629 296.352Z" fill="white"/>
<path d="M833.143 300.902C833.143 301.418 833.482 301.769 833.872 301.676C834.262 301.582 834.55 301.113 834.55 300.597C834.55 300.082 834.211 299.73 833.821 299.824C833.431 299.917 833.143 300.386 833.143 300.902Z" fill="white"/>
<path d="M838.081 146.003C838.369 146.425 838.912 146.425 839.268 145.956C839.623 145.511 839.674 144.784 839.386 144.339C839.098 143.917 838.556 143.917 838.2 144.385C837.844 144.831 837.793 145.558 838.081 146.003Z" fill="white"/>
<path d="M965.873 224.415C965.415 224.978 965.33 225.868 965.686 226.431C966.042 226.994 966.703 226.994 967.16 226.431C967.618 225.868 967.703 224.978 967.347 224.415C966.991 223.852 966.33 223.852 965.873 224.415Z" fill="white"/>
</g>
<g opacity="0.64">
<path d="M248.488 326.124C248.403 325.679 248.098 325.374 247.81 325.468C247.522 325.561 247.352 325.983 247.437 326.429C247.522 326.874 247.827 327.179 248.115 327.085C248.403 326.991 248.572 326.569 248.488 326.124Z" fill="white"/>
<path d="M264.682 322.727C264.632 322.422 264.428 322.235 264.225 322.282C264.022 322.329 263.92 322.633 263.971 322.938C264.022 323.243 264.225 323.43 264.428 323.384C264.632 323.337 264.733 323.032 264.682 322.727Z" fill="white"/>
<path d="M301.776 300.336C302.319 300.547 302.827 300.078 302.929 299.281C303.03 298.484 302.657 297.663 302.115 297.452C301.573 297.242 301.065 297.71 300.963 298.507C300.861 299.304 301.234 300.125 301.776 300.336Z" fill="white"/>
<path d="M189.695 287.682C190.085 287.425 190.237 286.745 190.034 286.135C189.831 285.526 189.356 285.245 188.967 285.479C188.577 285.737 188.424 286.417 188.628 287.026C188.831 287.635 189.305 287.917 189.695 287.682Z" fill="white"/>
</g>
<path d="M895.713 92.23C895.222 90.7064 894.036 90.0969 893.053 90.8704C892.07 91.644 891.68 93.4959 892.172 95.0195C892.663 96.5432 893.849 97.1526 894.832 96.379C895.815 95.6055 896.205 93.7537 895.713 92.23Z" fill="white"/>
<path d="M754.288 94.0356C754.983 94.0356 755.525 93.1448 755.525 92.0665C755.525 90.9883 754.949 90.1444 754.271 90.1444C753.577 90.1444 753.034 91.0351 753.034 92.1134C753.034 93.1917 753.611 94.0356 754.288 94.0356Z" fill="white"/>
<path d="M887.635 155.194C888.092 155.194 888.465 154.608 888.448 153.881C888.448 153.178 888.059 152.592 887.601 152.615C887.144 152.615 886.771 153.201 886.788 153.928C886.788 154.631 887.177 155.217 887.635 155.194Z" fill="white"/>
<path d="M606.078 164.802C605.638 163.443 604.57 162.904 603.689 163.584C602.808 164.263 602.469 165.928 602.91 167.287C603.35 168.647 604.418 169.186 605.299 168.506C606.18 167.826 606.519 166.162 606.078 164.802Z" fill="white"/>
<path d="M469.132 333.857C469.641 333.857 470.047 333.201 470.047 332.404C470.047 331.607 469.624 330.974 469.115 330.974C468.607 330.974 468.2 331.63 468.2 332.427C468.2 333.224 468.624 333.857 469.132 333.857Z" fill="white"/>
<path d="M526.211 94.4368C527.194 94.4368 527.973 93.171 527.956 91.6473C527.956 90.1237 527.143 88.9047 526.16 88.9282C525.177 88.9516 524.398 90.194 524.415 91.7177C524.415 93.2413 525.228 94.4602 526.211 94.4368Z" fill="white"/>
<path d="M199.202 176.34C199.66 175.777 199.745 174.746 199.389 174.042C199.033 173.339 198.372 173.199 197.915 173.761C197.457 174.324 197.372 175.355 197.728 176.058C198.084 176.761 198.745 176.902 199.202 176.34Z" fill="white"/>
<path d="M356.192 497.332C356.701 497.332 357.107 496.676 357.107 495.879C357.107 495.082 356.684 494.449 356.175 494.449C355.667 494.449 355.26 495.105 355.26 495.902C355.26 496.699 355.684 497.332 356.192 497.332Z" fill="white"/>
<path d="M399.703 243.844C400.686 243.844 401.465 242.578 401.448 241.054C401.448 239.531 400.635 238.312 399.652 238.335C398.669 238.359 397.89 239.601 397.907 241.125C397.907 242.648 398.72 243.867 399.703 243.844Z" fill="white"/>
<path d="M86.246 339.813C86.7035 339.25 86.7882 338.219 86.4323 337.516C86.0765 336.813 85.4156 336.672 84.9581 337.235C84.5006 337.797 84.4159 338.829 84.7717 339.532C85.1276 340.235 85.7884 340.376 86.246 339.813Z" fill="white"/>
<g opacity="0.4" filter="url(#filter0_f_413_669)">
<ellipse cx="706.218" cy="18.6667" rx="664.031" ry="462.778" fill="#633BBC"/>
</g>
<rect opacity="0.8" width="1440" height="1008" transform="matrix(1 0 0 -1 -0.000610352 1008)" fill="url(#paint0_linear_413_669)"/>
</g>
<defs>
<filter id="filter0_f_413_669" x="-307.813" y="-794.111" width="2028.06" height="1625.56" filterUnits="userSpaceOnUse" color-interpolation-filters="sRGB">
<feFlood flood-opacity="0" result="BackgroundImageFix"/>
<feBlend mode="normal" in="SourceGraphic" in2="BackgroundImageFix" result="shape"/>
<feGaussianBlur stdDeviation="175" result="effect1_foregroundBlur_413_669"/>
</filter>
<linearGradient id="paint0_linear_413_669" x1="720" y1="0" x2="720" y2="1008" gradientUnits="userSpaceOnUse">
<stop stop-color="#121214"/>
<stop offset="1" stop-color="#121214" stop-opacity="0"/>
</linearGradient>
<clipPath id="clip0_413_669">
<rect width="1440" height="840" fill="white"/>
</clipPath>
</defs>
</svg>
