<svg width="182" height="46" viewBox="0 0 182 46" fill="none" xmlns="http://www.w3.org/2000/svg">
<path fill-rule="evenodd" clip-rule="evenodd" d="M43.9045 25.8922C41.9445 25.8922 40.0662 25.6356 38.2695 25.1222C36.4728 24.5856 35.0262 23.8972 33.9295 23.0572L35.8545 18.7872C36.9045 19.5339 38.1412 20.1522 39.5645 20.6422C41.0112 21.1089 42.4695 21.3422 43.9395 21.3422C45.0595 21.3422 45.9578 21.2372 46.6345 21.0272C47.3345 20.7939 47.8478 20.4789 48.1745 20.0822C48.5012 19.6855 48.6645 19.2305 48.6645 18.7172C48.6645 18.0639 48.4078 17.5505 47.8945 17.1772C47.3812 16.7806 46.7045 16.4655 45.8645 16.2322C45.0245 15.9755 44.0912 15.7422 43.0645 15.5322C42.0612 15.2989 41.0462 15.0189 40.0195 14.6922C39.0162 14.3655 38.0945 13.9455 37.2545 13.4322C36.4145 12.9189 35.7262 12.2422 35.1895 11.4022C34.6762 10.5622 34.4195 9.48888 34.4195 8.18221C34.4195 6.78221 34.7928 5.51055 35.5395 4.36721C36.3095 3.20055 37.4528 2.27888 38.9695 1.60221C40.5095 0.902215 42.4345 0.552216 44.7445 0.552216C46.2845 0.552216 47.8012 0.738881 49.2945 1.11221C50.7878 1.46221 52.1062 1.99888 53.2495 2.72221L51.4995 7.02722C50.3562 6.37388 49.2128 5.89555 48.0695 5.59221C46.9262 5.26555 45.8062 5.10221 44.7095 5.10221C43.6128 5.10221 42.7145 5.23055 42.0145 5.48721C41.3145 5.74388 40.8128 6.08221 40.5095 6.50221C40.2062 6.89888 40.0545 7.36555 40.0545 7.90221C40.0545 8.53221 40.3112 9.04555 40.8245 9.44221C41.3378 9.81555 42.0145 10.1189 42.8545 10.3522C43.6945 10.5855 44.6162 10.8189 45.6195 11.0522C46.6462 11.2855 47.6612 11.5539 48.6645 11.8572C49.6912 12.1605 50.6245 12.5689 51.4645 13.0822C52.3045 13.5955 52.9812 14.2722 53.4945 15.1122C54.0312 15.9522 54.2995 17.0139 54.2995 18.2972C54.2995 19.6739 53.9145 20.9339 53.1445 22.0772C52.3745 23.2205 51.2195 24.1422 49.6795 24.8422C48.1628 25.5422 46.2378 25.8922 43.9045 25.8922ZM5.635 15.2522V20.9222H18.97V25.4722H0V0.972214H18.515V5.52221H5.635V10.8422H17.01V15.2522H5.635ZM21.7129 13.4322V17.8072H31.6178V13.4322H21.7129ZM58.1738 0.972214V25.4722H63.8438V18.7172H68.7788C70.9722 18.7172 72.8622 18.3672 74.4488 17.6672C76.0355 16.9439 77.2605 15.9172 78.1238 14.5872C78.9872 13.2572 79.4188 11.6822 79.4188 9.86222C79.4188 8.01888 78.9872 6.43221 78.1238 5.10221C77.2605 3.77221 76.0355 2.75721 74.4488 2.05721C72.8622 1.33388 70.9722 0.972214 68.7788 0.972214H58.1738ZM63.8438 14.0972H68.4638C70.2138 14.0972 71.5205 13.7239 72.3838 12.9772C73.2472 12.2305 73.6788 11.1922 73.6788 9.86222C73.6788 8.50888 73.2472 7.45888 72.3838 6.71222C71.5205 5.96555 70.2138 5.59221 68.4638 5.59221H63.8438V14.0972ZM95.7086 25.8922C93.7719 25.8922 91.9753 25.5772 90.3186 24.9472C88.6853 24.3172 87.2619 23.4305 86.0486 22.2872C84.8586 21.1439 83.9253 19.8022 83.2486 18.2622C82.5953 16.7222 82.2686 15.0422 82.2686 13.2222C82.2686 11.4022 82.5953 9.72221 83.2486 8.18221C83.9253 6.64222 84.8703 5.30055 86.0836 4.15722C87.2969 3.01388 88.7203 2.12721 90.3536 1.49721C91.9869 0.867215 93.7603 0.552216 95.6736 0.552216C97.6103 0.552216 99.3836 0.867215 100.994 1.49721C102.627 2.12721 104.039 3.01388 105.229 4.15722C106.442 5.30055 107.387 6.64222 108.064 8.18221C108.74 9.69888 109.079 11.3789 109.079 13.2222C109.079 15.0422 108.74 16.7339 108.064 18.2972C107.387 19.8372 106.442 21.1789 105.229 22.3222C104.039 23.4422 102.627 24.3172 100.994 24.9472C99.3836 25.5772 97.6219 25.8922 95.7086 25.8922ZM113.34 0.972214V25.4722H119.01V18.6472H123.945C123.977 18.6472 124.009 18.6471 124.04 18.647C124.062 18.6469 124.084 18.6468 124.106 18.6466L124.211 18.6455L128.915 25.4722H135.04L129.567 17.6183L129.615 17.5972C131.202 16.8972 132.427 15.8939 133.29 14.5872C134.153 13.2572 134.585 11.6822 134.585 9.86222C134.585 8.01888 134.153 6.43221 133.29 5.10221C132.427 3.77221 131.202 2.75721 129.615 2.05721C128.028 1.33388 126.138 0.972214 123.945 0.972214H113.34ZM119.01 14.1322H123.63C125.38 14.1322 126.687 13.7589 127.55 13.0122C128.413 12.2422 128.845 11.1922 128.845 9.86222C128.845 8.50888 128.413 7.45888 127.55 6.71222C126.687 5.96555 125.38 5.59221 123.63 5.59221H119.01V14.1322ZM143.81 5.59221H135.97V0.972214H157.32V5.59221H149.48V25.4722H143.81V5.59221ZM162.615 25.1222C164.412 25.6356 166.29 25.8922 168.25 25.8922C170.584 25.8922 172.509 25.5422 174.025 24.8422C175.565 24.1422 176.72 23.2205 177.49 22.0772C178.26 20.9339 178.645 19.6739 178.645 18.2972C178.645 17.0139 178.377 15.9522 177.84 15.1122C177.327 14.2722 176.65 13.5955 175.81 13.0822C174.97 12.5689 174.037 12.1605 173.01 11.8572C172.007 11.5539 170.992 11.2855 169.965 11.0522C168.962 10.8189 168.04 10.5855 167.2 10.3522C166.36 10.1189 165.684 9.81555 165.17 9.44221C164.657 9.04555 164.4 8.53221 164.4 7.90221C164.4 7.36555 164.552 6.89888 164.855 6.50221C165.159 6.08221 165.66 5.74388 166.36 5.48721C167.06 5.23055 167.959 5.10221 169.055 5.10221C170.152 5.10221 171.272 5.26555 172.415 5.59221C173.559 5.89555 174.702 6.37388 175.845 7.02722L177.595 2.72221C176.452 1.99888 175.134 1.46221 173.64 1.11221C172.147 0.738881 170.63 0.552216 169.09 0.552216C166.78 0.552216 164.855 0.902215 163.315 1.60221C161.799 2.27888 160.655 3.20055 159.885 4.36721C159.139 5.51055 158.765 6.78221 158.765 8.18221C158.765 9.48888 159.022 10.5622 159.535 11.4022C160.072 12.2422 160.76 12.9189 161.6 13.4322C162.44 13.9455 163.362 14.3655 164.365 14.6922C165.392 15.0189 166.407 15.2989 167.41 15.5322C168.437 15.7422 169.37 15.9755 170.21 16.2322C171.05 16.4655 171.727 16.7806 172.24 17.1772C172.754 17.5505 173.01 18.0639 173.01 18.7172C173.01 19.2305 172.847 19.6855 172.52 20.0822C172.194 20.4789 171.68 20.7939 170.98 21.0272C170.304 21.2372 169.405 21.3422 168.285 21.3422C166.815 21.3422 165.357 21.1089 163.91 20.6422C162.487 20.1522 161.25 19.5339 160.2 18.7872L158.275 23.0572C159.372 23.8972 160.819 24.5856 162.615 25.1222ZM86 17V9.99997H89.4782C90.3731 9.99997 91.0444 10.1666 91.4919 10.5C91.9461 10.8333 92.1733 11.2733 92.1733 11.82C92.1733 12.1866 92.0817 12.5066 91.8987 12.78C91.733 13.0213 91.5118 13.2135 91.2351 13.3565C91.302 13.3785 91.3673 13.403 91.4308 13.43C91.7766 13.57 92.0444 13.78 92.2343 14.06C92.4309 14.34 92.5292 14.6833 92.5292 15.09C92.5292 15.69 92.2885 16.16 91.8071 16.5C91.3257 16.8333 90.6172 17 89.6816 17H86ZM87.6374 15.78H89.5595C89.9867 15.78 90.3087 15.7133 90.5257 15.58C90.7494 15.44 90.8613 15.22 90.8613 14.92C90.8613 14.6266 90.7494 14.41 90.5257 14.27C90.3087 14.1233 89.9867 14.05 89.5595 14.05H87.6374V15.78ZM87.6374 11.22V12.87H89.2748C89.6748 12.87 89.9799 12.8033 90.1901 12.67C90.4071 12.53 90.5155 12.32 90.5155 12.04C90.5155 11.7666 90.4071 11.5633 90.1901 11.43C89.9799 11.29 89.6748 11.22 89.2748 11.22H87.6374ZM95.4139 15.7V14.08H98.7192V12.82H95.4139V11.3H99.1565V9.99997H93.7766V17H99.2888V15.7H95.4139ZM102.074 11.32V17H103.722V11.32H106V9.99997H99.7962V11.32H102.074Z" fill="#F7DD43"/>
<path d="M0.02 44L3.22 37H3.95L7.15 44H6.37L3.43 37.43H3.73L0.79 44H0.02ZM1.28 42.13L1.5 41.53H5.57L5.79 42.13H1.28ZM16.9252 44V37H19.5452C20.1385 37 20.6485 37.0967 21.0752 37.29C21.5018 37.4767 21.8285 37.75 22.0552 38.11C22.2885 38.4633 22.4052 38.8933 22.4052 39.4C22.4052 39.8933 22.2885 40.32 22.0552 40.68C21.8285 41.0333 21.5018 41.3067 21.0752 41.5C20.6485 41.6933 20.1385 41.79 19.5452 41.79H17.3352L17.6652 41.44V44H16.9252ZM17.6652 41.5L17.3352 41.14H19.5252C20.2252 41.14 20.7552 40.99 21.1152 40.69C21.4818 40.3833 21.6652 39.9533 21.6652 39.4C21.6652 38.84 21.4818 38.4067 21.1152 38.1C20.7552 37.7933 20.2252 37.64 19.5252 37.64H17.3352L17.6652 37.29V41.5ZM25.5337 44L28.7337 37H29.4637L32.6637 44H31.8837L28.9437 37.43H29.2437L26.3037 44H25.5337ZM26.7937 42.13L27.0137 41.53H31.0837L31.3037 42.13H26.7937ZM36.8216 44V37H37.5616V44H36.8216ZM41.8692 44L44.7392 40.12V40.69L42.0392 37H42.8892L45.1592 40.08L44.8292 40.09L47.0992 37H47.8992L45.2292 40.64V40.12L48.0892 44H47.2292L44.8092 40.71H45.1192L42.7192 44H41.8692ZM50.9595 44L54.1595 37H54.8895L58.0895 44H57.3095L54.3695 37.43H54.6695L51.7295 44H50.9595ZM52.2195 42.13L52.4395 41.53H56.5095L56.7295 42.13H52.2195ZM55.2095 36.37C55.0561 36.37 54.9195 36.3367 54.7995 36.27C54.6795 36.2033 54.5695 36.1267 54.4695 36.04C54.3761 35.9467 54.2828 35.8667 54.1895 35.8C54.0961 35.7267 53.9995 35.69 53.8995 35.69C53.7461 35.69 53.6228 35.7467 53.5295 35.86C53.4428 35.9733 53.3928 36.13 53.3795 36.33H52.9495C52.9628 35.9967 53.0495 35.73 53.2095 35.53C53.3761 35.33 53.5895 35.23 53.8495 35.23C54.0028 35.23 54.1395 35.2667 54.2595 35.34C54.3861 35.4067 54.4961 35.4867 54.5895 35.58C54.6895 35.6667 54.7828 35.7433 54.8695 35.81C54.9628 35.8767 55.0595 35.91 55.1595 35.91C55.3128 35.91 55.4361 35.8567 55.5295 35.75C55.6228 35.6367 55.6728 35.4833 55.6795 35.29H56.1095C56.1028 35.61 56.0161 35.87 55.8495 36.07C55.6828 36.27 55.4695 36.37 55.2095 36.37ZM65.2098 44.06C64.6831 44.06 64.1931 43.9733 63.7398 43.8C63.2931 43.62 62.9031 43.37 62.5698 43.05C62.2431 42.7233 61.9864 42.3467 61.7998 41.92C61.6198 41.4867 61.5298 41.0133 61.5298 40.5C61.5298 39.9867 61.6198 39.5167 61.7998 39.09C61.9864 38.6567 62.2431 38.28 62.5698 37.96C62.9031 37.6333 63.2931 37.3833 63.7398 37.21C64.1864 37.03 64.6764 36.94 65.2098 36.94C65.7364 36.94 66.2231 37.03 66.6698 37.21C67.1164 37.3833 67.5031 37.63 67.8298 37.95C68.1631 38.27 68.4198 38.6467 68.5998 39.08C68.7864 39.5133 68.8798 39.9867 68.8798 40.5C68.8798 41.0133 68.7864 41.4867 68.5998 41.92C68.4198 42.3533 68.1631 42.73 67.8298 43.05C67.5031 43.37 67.1164 43.62 66.6698 43.8C66.2231 43.9733 65.7364 44.06 65.2098 44.06ZM65.2098 43.4C65.6298 43.4 66.0164 43.33 66.3698 43.19C66.7298 43.0433 67.0398 42.84 67.2998 42.58C67.5664 42.3133 67.7731 42.0067 67.9198 41.66C68.0664 41.3067 68.1398 40.92 68.1398 40.5C68.1398 40.08 68.0664 39.6967 67.9198 39.35C67.7731 38.9967 67.5664 38.69 67.2998 38.43C67.0398 38.1633 66.7298 37.96 66.3698 37.82C66.0164 37.6733 65.6298 37.6 65.2098 37.6C64.7898 37.6 64.3998 37.6733 64.0398 37.82C63.6798 37.96 63.3664 38.1633 63.0998 38.43C62.8398 38.69 62.6331 38.9967 62.4798 39.35C62.3331 39.6967 62.2598 40.08 62.2598 40.5C62.2598 40.9133 62.3331 41.2967 62.4798 41.65C62.6331 42.0033 62.8398 42.3133 63.0998 42.58C63.3664 42.84 63.6798 43.0433 64.0398 43.19C64.3998 43.33 64.7898 43.4 65.2098 43.4ZM82.2156 44.06C81.689 44.06 81.199 43.9733 80.7456 43.8C80.299 43.62 79.909 43.37 79.5756 43.05C79.249 42.7233 78.9923 42.3467 78.8056 41.92C78.6256 41.4867 78.5356 41.0133 78.5356 40.5C78.5356 39.9867 78.6256 39.5167 78.8056 39.09C78.9923 38.6567 79.249 38.28 79.5756 37.96C79.909 37.6333 80.299 37.3833 80.7456 37.21C81.1923 37.03 81.6823 36.94 82.2156 36.94C82.7423 36.94 83.229 37.03 83.6756 37.21C84.1223 37.3833 84.509 37.63 84.8356 37.95C85.169 38.27 85.4256 38.6467 85.6056 39.08C85.7923 39.5133 85.8856 39.9867 85.8856 40.5C85.8856 41.0133 85.7923 41.4867 85.6056 41.92C85.4256 42.3533 85.169 42.73 84.8356 43.05C84.509 43.37 84.1223 43.62 83.6756 43.8C83.229 43.9733 82.7423 44.06 82.2156 44.06ZM84.5056 45.39C84.2923 45.39 84.0856 45.3633 83.8856 45.31C83.6856 45.2567 83.4823 45.17 83.2756 45.05C83.0756 44.9367 82.869 44.7867 82.6556 44.6C82.4423 44.4133 82.209 44.1867 81.9556 43.92L82.7656 43.72C82.9723 43.9667 83.1723 44.17 83.3656 44.33C83.5656 44.49 83.759 44.6067 83.9456 44.68C84.139 44.76 84.329 44.8 84.5156 44.8C85.0356 44.8 85.479 44.5867 85.8456 44.16L86.2056 44.59C85.7656 45.1233 85.199 45.39 84.5056 45.39ZM82.2156 43.4C82.6356 43.4 83.0223 43.33 83.3756 43.19C83.7356 43.0433 84.0456 42.8367 84.3056 42.57C84.5723 42.3033 84.779 41.9967 84.9256 41.65C85.0723 41.2967 85.1456 40.9133 85.1456 40.5C85.1456 40.08 85.0723 39.6967 84.9256 39.35C84.779 38.9967 84.5723 38.69 84.3056 38.43C84.0456 38.1633 83.7356 37.96 83.3756 37.82C83.0223 37.6733 82.6356 37.6 82.2156 37.6C81.7956 37.6 81.4056 37.6733 81.0456 37.82C80.6856 37.96 80.3723 38.1633 80.1056 38.43C79.8456 38.69 79.639 38.9967 79.4856 39.35C79.339 39.6967 79.2656 40.08 79.2656 40.5C79.2656 40.9133 79.339 41.2967 79.4856 41.65C79.639 41.9967 79.8456 42.3033 80.1056 42.57C80.3723 42.8367 80.6856 43.0433 81.0456 43.19C81.4056 43.33 81.7956 43.4 82.2156 43.4ZM93.3643 44.06C92.471 44.06 91.7676 43.8033 91.2543 43.29C90.741 42.7767 90.4843 42.0167 90.4843 41.01V37H91.2243V40.98C91.2243 41.8067 91.411 42.4167 91.7843 42.81C92.1576 43.2033 92.6843 43.4 93.3643 43.4C94.051 43.4 94.581 43.2033 94.9543 42.81C95.3276 42.4167 95.5143 41.8067 95.5143 40.98V37H96.2343V41.01C96.2343 42.0167 95.9776 42.7767 95.4643 43.29C94.9576 43.8033 94.2576 44.06 93.3643 44.06ZM102.124 40.13H105.824V40.76H102.124V40.13ZM102.204 43.36H106.414V44H101.464V37H106.264V37.64H102.204V43.36ZM116.771 44V37H117.381L122.211 43.08H121.891V37H122.621V44H122.011L117.191 37.92H117.511V44H116.771ZM130.966 44.06C130.439 44.06 129.949 43.9733 129.496 43.8C129.049 43.62 128.659 43.37 128.326 43.05C127.999 42.7233 127.742 42.3467 127.556 41.92C127.376 41.4867 127.286 41.0133 127.286 40.5C127.286 39.9867 127.376 39.5167 127.556 39.09C127.742 38.6567 127.999 38.28 128.326 37.96C128.659 37.6333 129.049 37.3833 129.496 37.21C129.942 37.03 130.432 36.94 130.966 36.94C131.492 36.94 131.979 37.03 132.426 37.21C132.872 37.3833 133.259 37.63 133.586 37.95C133.919 38.27 134.176 38.6467 134.356 39.08C134.542 39.5133 134.636 39.9867 134.636 40.5C134.636 41.0133 134.542 41.4867 134.356 41.92C134.176 42.3533 133.919 42.73 133.586 43.05C133.259 43.37 132.872 43.62 132.426 43.8C131.979 43.9733 131.492 44.06 130.966 44.06ZM130.966 43.4C131.386 43.4 131.772 43.33 132.126 43.19C132.486 43.0433 132.796 42.84 133.056 42.58C133.322 42.3133 133.529 42.0067 133.676 41.66C133.822 41.3067 133.896 40.92 133.896 40.5C133.896 40.08 133.822 39.6967 133.676 39.35C133.529 38.9967 133.322 38.69 133.056 38.43C132.796 38.1633 132.486 37.96 132.126 37.82C131.772 37.6733 131.386 37.6 130.966 37.6C130.546 37.6 130.156 37.6733 129.796 37.82C129.436 37.96 129.122 38.1633 128.856 38.43C128.596 38.69 128.389 38.9967 128.236 39.35C128.089 39.6967 128.016 40.08 128.016 40.5C128.016 40.9133 128.089 41.2967 128.236 41.65C128.389 42.0033 128.596 42.3133 128.856 42.58C129.122 42.84 129.436 43.0433 129.796 43.19C130.156 43.33 130.546 43.4 130.966 43.4ZM141.224 44.06C140.704 44.06 140.204 43.9767 139.724 43.81C139.251 43.6367 138.884 43.4167 138.624 43.15L138.914 42.58C139.161 42.82 139.491 43.0233 139.904 43.19C140.324 43.35 140.764 43.43 141.224 43.43C141.664 43.43 142.021 43.3767 142.294 43.27C142.574 43.1567 142.778 43.0067 142.904 42.82C143.038 42.6333 143.104 42.4267 143.104 42.2C143.104 41.9267 143.024 41.7067 142.864 41.54C142.711 41.3733 142.508 41.2433 142.254 41.15C142.001 41.05 141.721 40.9633 141.414 40.89C141.108 40.8167 140.801 40.74 140.494 40.66C140.188 40.5733 139.904 40.46 139.644 40.32C139.391 40.18 139.184 39.9967 139.024 39.77C138.871 39.5367 138.794 39.2333 138.794 38.86C138.794 38.5133 138.884 38.1967 139.064 37.91C139.251 37.6167 139.534 37.3833 139.914 37.21C140.294 37.03 140.781 36.94 141.374 36.94C141.768 36.94 142.158 36.9967 142.544 37.11C142.931 37.2167 143.264 37.3667 143.544 37.56L143.294 38.15C142.994 37.95 142.674 37.8033 142.334 37.71C142.001 37.6167 141.678 37.57 141.364 37.57C140.944 37.57 140.598 37.6267 140.324 37.74C140.051 37.8533 139.848 38.0067 139.714 38.2C139.588 38.3867 139.524 38.6 139.524 38.84C139.524 39.1133 139.601 39.3333 139.754 39.5C139.914 39.6667 140.121 39.7967 140.374 39.89C140.634 39.9833 140.918 40.0667 141.224 40.14C141.531 40.2133 141.834 40.2933 142.134 40.38C142.441 40.4667 142.721 40.58 142.974 40.72C143.234 40.8533 143.441 41.0333 143.594 41.26C143.754 41.4867 143.834 41.7833 143.834 42.15C143.834 42.49 143.741 42.8067 143.554 43.1C143.368 43.3867 143.081 43.62 142.694 43.8C142.314 43.9733 141.824 44.06 141.224 44.06ZM156.884 44.06C155.99 44.06 155.287 43.8033 154.774 43.29C154.26 42.7767 154.004 42.0167 154.004 41.01V37H154.744V40.98C154.744 41.8067 154.93 42.4167 155.304 42.81C155.677 43.2033 156.204 43.4 156.884 43.4C157.57 43.4 158.1 43.2033 158.474 42.81C158.847 42.4167 159.034 41.8067 159.034 40.98V37H159.754V41.01C159.754 42.0167 159.497 42.7767 158.984 43.29C158.477 43.8033 157.777 44.06 156.884 44.06ZM164.984 44V37H165.594L170.424 43.08H170.104V37H170.834V44H170.224L165.404 37.92H165.724V44H164.984ZM176.779 40.13H180.479V40.76H176.779V40.13ZM176.859 43.36H181.069V44H176.119V37H180.919V37.64H176.859V43.36Z" fill="white"/>
</svg>
